<svg width="100" height="100" viewBox="0 0 100 100" fill="none" xmlns="http://www.w3.org/2000/svg">
<g clip-path="url(#clip0)">
<path d="M40 30L36 30L40 30ZM70 60L70 64L70 64L70 60ZM50.5 87L50.5 83L50.5 83L50.5 87ZM13 49.5L9.00001 49.5L9.00001 49.5L13 49.5ZM81.6645 57.6479L83.221 61.3326L81.6645 57.6479ZM86.2013 61.0077L82.3939 59.7814L86.2013 61.0077ZM42.3521 18.3355L38.6674 16.779L42.3521 18.3355ZM44 30C44 26.4071 44.7265 22.9941 46.0369 19.892L38.6674 16.779C36.9484 20.8484 36 25.3186 36 30L44 30ZM70 56C55.6406 56 44 44.3594 44 30L36 30C36 48.7777 51.2223 64 70 64L70 56ZM80.108 53.9631C77.006 55.2735 73.5929 56 70 56L70 64C74.6814 64 79.1516 63.0516 83.221 61.3326L80.108 53.9631ZM82.3939 59.7814C78.0534 73.2577 65.4092 83 50.5 83L50.5 91C68.9832 91 84.6345 78.9196 90.0087 62.234L82.3939 59.7814ZM50.5 83C31.9985 83 17 68.0015 17 49.5L9.00001 49.5C9.00001 72.4198 27.5802 91 50.5 91L50.5 83ZM17 49.5C17 34.5908 26.7423 21.9467 40.2186 17.6061L37.7659 9.99137C21.0804 15.3656 9.00002 31.0168 9.00001 49.5L17 49.5ZM83.221 61.3326C83.0992 61.3841 82.9838 61.3747 82.845 61.2773C82.7521 61.212 82.567 61.0453 82.4428 60.7242C82.3039 60.3649 82.3204 60.0095 82.3939 59.7814L90.0087 62.234C91.0389 59.0353 89.5558 56.2151 87.4442 54.7315C85.4414 53.3243 82.6542 52.8876 80.108 53.9631L83.221 61.3326ZM46.0369 19.892C47.1124 17.3458 46.6757 14.5586 45.2685 12.5558C43.7849 10.4442 40.9647 8.96109 37.7659 9.99137L40.2186 17.6061C39.9905 17.6796 39.6351 17.6961 39.2758 17.5572C38.9547 17.4331 38.788 17.2479 38.7227 17.155C38.6252 17.0163 38.6159 16.9008 38.6674 16.779L46.0369 19.892Z" fill="#434952"/>
</g>
<defs>
<clipPath id="clip0">
<rect width="100" height="100" fill="white"/>
</clipPath>
</defs>
</svg>
